<?xml version="1.0" encoding="UTF-8" standalone="no"?>
<svg xmlns:ffdec="https://www.free-decompiler.com/flash" xmlns:xlink="http://www.w3.org/1999/xlink" ffdec:objectType="shape" height="9.4px" width="19.95px" xmlns="http://www.w3.org/2000/svg">
  <g transform="matrix(1.0, 0.0, 0.0, 1.0, 9.45, 3.85)">
    <path d="M6.5 -2.85 Q8.15 -2.85 9.3 -1.7 10.5 -0.5 10.5 1.15 L10.5 1.55 Q10.5 3.2 9.3 4.35 8.15 5.55 6.5 5.55 L-3.7 5.55 Q-5.35 5.55 -6.55 4.35 -7.7 3.2 -7.7 1.55 L-7.7 1.15 Q-7.7 -0.5 -6.55 -1.7 -5.35 -2.85 -3.7 -2.85 L6.5 -2.85" fill="#000000" fill-rule="evenodd" stroke="none"/>
    <path d="M5.0 -3.6 Q6.65 -3.6 7.8 -2.45 9.0 -1.25 9.0 0.4 L9.0 0.8 Q9.0 2.45 7.8 3.6 6.65 4.8 5.0 4.8 L-5.2 4.8 Q-6.85 4.8 -8.05 3.6 -9.2 2.45 -9.2 0.8 L-9.2 0.4 Q-9.2 -1.25 -8.05 -2.45 -6.85 -3.6 -5.2 -3.6 L5.0 -3.6" fill="#cccccc" fill-rule="evenodd" stroke="none"/>
    <path d="M5.0 -3.6 L-5.2 -3.6 Q-6.85 -3.6 -8.05 -2.45 -9.2 -1.25 -9.2 0.4 L-9.2 0.8 Q-9.2 2.45 -8.05 3.6 -6.85 4.8 -5.2 4.8 L5.0 4.8 Q6.65 4.8 7.8 3.6 9.0 2.45 9.0 0.8 L9.0 0.4 Q9.0 -1.25 7.8 -2.45 6.65 -3.6 5.0 -3.6 Z" fill="none" stroke="#ffffff" stroke-linecap="round" stroke-linejoin="round" stroke-width="0.5"/>
    <path d="M-4.45 1.4 L4.6 1.4" fill="none" stroke="#000000" stroke-linecap="round" stroke-linejoin="round" stroke-width="1.0"/>
  </g>
</svg>
