<?xml version="1.0" encoding="UTF-8" standalone="no"?>
<svg xmlns:ffdec="https://www.free-decompiler.com/flash" xmlns:xlink="http://www.w3.org/1999/xlink" ffdec:objectType="shape" height="98.5px" width="167.2px" xmlns="http://www.w3.org/2000/svg">
  <g transform="matrix(1.0, 0.0, 0.0, 1.0, 84.85, 1.2)">
    <path d="M81.85 -0.65 L81.85 90.25 Q81.85 92.95 80.5 94.85 79.15 96.8 77.3 96.8 L-79.75 96.8 Q-81.65 96.8 -83.0 94.85 -84.35 92.95 -84.35 90.25 L-84.35 -0.65 81.85 -0.65" fill="#ffffff" fill-rule="evenodd" stroke="none"/>
    <path d="M81.85 -0.65 L-84.35 -0.65" fill="none" stroke="#ffffff" stroke-linecap="round" stroke-linejoin="round" stroke-width="1.0"/>
    <path d="M-84.35 -0.7 L-84.35 90.2 Q-84.35 92.95 -83.05 94.8 -81.65 96.8 -79.75 96.8 L77.25 96.8 Q79.15 96.8 80.45 94.8 81.85 92.95 81.85 90.2 L81.85 -0.7" fill="none" stroke="#999999" stroke-linecap="round" stroke-linejoin="round" stroke-width="1.0"/>
  </g>
</svg>
