<?xml version="1.0" encoding="UTF-8" standalone="no"?>
<svg xmlns:ffdec="https://www.free-decompiler.com/flash" xmlns:xlink="http://www.w3.org/1999/xlink" ffdec:objectType="shape" height="19.1px" width="77.05px" xmlns="http://www.w3.org/2000/svg">
  <g transform="matrix(1.0, 0.0, 0.0, 1.0, 38.65, 8.75)">
    <path d="M23.45 -7.3 L23.45 8.0 Q17.4 9.6 11.4 8.0 L11.4 -7.3 Q17.4 -8.85 23.45 -7.3" fill="url(#gradient0)" fill-rule="evenodd" stroke="none"/>
    <path d="M-4.1 -7.1 L-4.1 8.2 Q-9.9 9.8 -15.65 8.2 L-15.65 -7.1 Q-9.9 -8.65 -4.1 -7.1" fill="url(#gradient1)" fill-rule="evenodd" stroke="none"/>
    <path d="M-28.4 -7.1 L-28.4 8.25 Q-30.75 9.85 -33.15 8.25 L-33.15 -7.1 Q-30.75 -8.7 -28.4 -7.1" fill="url(#gradient2)" fill-rule="evenodd" stroke="none"/>
    <path d="M38.4 -6.65 L38.4 7.6 32.5 10.35 32.5 -8.4 38.4 -6.65" fill="url(#gradient3)" fill-rule="evenodd" stroke="none"/>
    <path d="M-38.65 -6.5 L-32.5 -8.75 -32.5 10.25 -38.65 7.75 -38.65 -6.5" fill="url(#gradient4)" fill-rule="evenodd" stroke="none"/>
    <path d="M34.5 -7.3 L34.5 8.2 23.0 8.2 23.0 -7.3 34.5 -7.3" fill="url(#gradient5)" fill-rule="evenodd" stroke="none"/>
    <path d="M36.0 -7.3 L36.05 -7.3 36.05 -7.2 36.0 -7.2 36.0 -7.3" fill="url(#gradient6)" fill-rule="evenodd" stroke="none"/>
    <path d="M11.25 8.25 L-4.25 8.25 -4.25 -7.25 11.25 -7.25 11.25 8.25" fill="url(#gradient7)" fill-rule="evenodd" stroke="none"/>
    <path d="M-14.7 -7.25 L-14.7 8.25 -28.7 8.25 -28.7 -7.25 -14.7 -7.25" fill="url(#gradient8)" fill-rule="evenodd" stroke="none"/>
  </g>
  <defs>
    <linearGradient gradientTransform="matrix(-0.007, 0.0, 1.0E-4, -0.0093, 17.95, -27.3)" gradientUnits="userSpaceOnUse" id="gradient0" spreadMethod="pad" x1="-819.2" x2="819.2">
      <stop offset="0.0" stop-color="#cccccc"/>
      <stop offset="1.0" stop-color="#000000"/>
    </linearGradient>
    <linearGradient gradientTransform="matrix(-0.007, 0.0, 1.0E-4, -0.0103, -9.9, 0.55)" gradientUnits="userSpaceOnUse" id="gradient1" spreadMethod="pad" x1="-819.2" x2="819.2">
      <stop offset="0.0" stop-color="#000000"/>
      <stop offset="0.3411764705882353" stop-color="#cccccc"/>
      <stop offset="1.0" stop-color="#000000"/>
    </linearGradient>
    <linearGradient gradientTransform="matrix(0.0033, 0.0, 0.0, 0.0094, -30.7, 28.4)" gradientUnits="userSpaceOnUse" id="gradient2" spreadMethod="pad" x1="-819.2" x2="819.2">
      <stop offset="0.0" stop-color="#000000"/>
      <stop offset="0.3411764705882353" stop-color="#cccccc"/>
      <stop offset="1.0" stop-color="#000000"/>
    </linearGradient>
    <linearGradient gradientTransform="matrix(-0.0036, 0.0, 0.0, -0.0095, 36.6, 0.85)" gradientUnits="userSpaceOnUse" id="gradient3" spreadMethod="pad" x1="-819.2" x2="819.2">
      <stop offset="0.0" stop-color="#cccccc"/>
      <stop offset="1.0" stop-color="#000000"/>
    </linearGradient>
    <linearGradient gradientTransform="matrix(0.0038, 0.0, 0.0, 0.0095, -35.55, 0.5)" gradientUnits="userSpaceOnUse" id="gradient4" spreadMethod="pad" x1="-819.2" x2="819.2">
      <stop offset="0.0" stop-color="#cccccc"/>
      <stop offset="1.0" stop-color="#000000"/>
    </linearGradient>
    <linearGradient gradientTransform="matrix(0.0074, 0.0066, -0.0036, 0.0077, 18.5, 19.75)" gradientUnits="userSpaceOnUse" id="gradient5" spreadMethod="pad" x1="-819.2" x2="819.2">
      <stop offset="0.0" stop-color="#999999"/>
      <stop offset="1.0" stop-color="#000000"/>
    </linearGradient>
    <linearGradient gradientTransform="matrix(0.0084, 0.0066, -0.0041, 0.0077, 16.7, 18.95)" gradientUnits="userSpaceOnUse" id="gradient6" spreadMethod="pad" x1="-819.2" x2="819.2">
      <stop offset="0.0" stop-color="#ffffff"/>
      <stop offset="1.0" stop-color="#000000"/>
    </linearGradient>
    <linearGradient gradientTransform="matrix(0.0103, 0.0052, -0.0043, 0.0084, -6.5, 23.3)" gradientUnits="userSpaceOnUse" id="gradient7" spreadMethod="pad" x1="-819.2" x2="819.2">
      <stop offset="0.0" stop-color="#ffffff"/>
      <stop offset="1.0" stop-color="#000000"/>
    </linearGradient>
    <linearGradient gradientTransform="matrix(0.013, 0.006, -0.0045, 0.0085, -21.7, 0.5)" gradientUnits="userSpaceOnUse" id="gradient8" spreadMethod="pad" x1="-819.2" x2="819.2">
      <stop offset="0.0" stop-color="#ffffff"/>
      <stop offset="1.0" stop-color="#000000"/>
    </linearGradient>
  </defs>
</svg>
