<?xml version="1.0" encoding="UTF-8" standalone="no"?>
<svg xmlns:ffdec="https://www.free-decompiler.com/flash" xmlns:xlink="http://www.w3.org/1999/xlink" ffdec:objectType="shape" height="117.4px" width="75.2px" xmlns="http://www.w3.org/2000/svg">
  <g transform="matrix(1.0, 0.0, 0.0, 1.0, -27.05, -283.0)">
    <path d="M94.4 399.9 L98.3 399.9 98.3 358.25 M98.3 399.9 L101.75 399.9" fill="none" stroke="#000000" stroke-linecap="round" stroke-linejoin="round" stroke-width="1.0"/>
    <path d="M94.4 303.15 L98.3 303.15 98.3 344.8 M98.3 303.15 L101.75 303.15" fill="none" stroke="#000000" stroke-linecap="round" stroke-linejoin="round" stroke-width="1.0"/>
    <path d="M84.7 292.7 L84.7 295.05 84.7 297.3 M68.95 295.05 L84.7 295.05" fill="none" stroke="#000000" stroke-linecap="round" stroke-linejoin="round" stroke-width="1.0"/>
    <path d="M27.55 292.7 L27.55 295.05 27.55 297.3 M43.3 295.05 L27.55 295.05" fill="none" stroke="#000000" stroke-linecap="round" stroke-linejoin="round" stroke-width="1.0"/>
    <path d="M41.15 283.9 L41.15 286.25 41.15 288.5 M46.5 286.25 L41.15 286.25" fill="none" stroke="#000000" stroke-linecap="round" stroke-linejoin="round" stroke-width="1.0"/>
    <path d="M71.5 283.5 L71.5 285.85 71.5 288.1 M66.15 285.85 L71.5 285.85" fill="none" stroke="#000000" stroke-linecap="round" stroke-linejoin="round" stroke-width="1.0"/>
  </g>
</svg>
